<svg width="1368" height="768" viewBox="0 0 1368 768" fill="none" xmlns="http://www.w3.org/2000/svg">
<g clip-path="url(#clip0_204_103)">
<rect width="1368" height="768" fill="white"/>
<rect width="1368" height="768" fill="#1A1A1A" fill-opacity="0.95"/>
<rect x="215.713" y="359" width="210" height="380" rx="12" transform="rotate(48.5251 215.713 359)" fill="#2C2C2C"/>
<rect x="546.713" y="59" width="210" height="380" rx="12" transform="rotate(48.5251 546.713 59)" fill="#2C2C2C"/>
<rect x="122.713" y="49" width="210" height="380" rx="12" transform="rotate(48.5251 122.713 49)" fill="#2C2C2C"/>
<rect x="512.713" y="514" width="210" height="380" rx="12" transform="rotate(48.5251 512.713 514)" fill="#2C2C2C"/>
<rect x="868.713" y="206" width="210" height="380" rx="12" transform="rotate(48.5251 868.713 206)" fill="#2C2C2C"/>
<rect x="1228.71" y="-94" width="210" height="380" rx="12" transform="rotate(48.5251 1228.71 -94)" fill="#2C2C2C"/>
<rect x="1318.71" y="180" width="210" height="380" rx="12" transform="rotate(48.5251 1318.71 180)" fill="#2C2C2C"/>
<rect x="993.713" y="469" width="210" height="380" rx="12" transform="rotate(48.5251 993.713 469)" fill="#2C2C2C"/>
<rect x="1367.71" y="505" width="210" height="380" rx="12" transform="rotate(48.5251 1367.71 505)" fill="#2C2C2C"/>
<rect x="894.713" y="-240" width="210" height="380" rx="12" transform="rotate(48.5251 894.713 -240)" fill="#2C2C2C"/>
<rect x="492.713" y="-252" width="210" height="380" rx="12" transform="rotate(48.5251 492.713 -252)" fill="#2C2C2C"/>
</g>
<defs>
<clipPath id="clip0_204_103">
<rect width="1368" height="768" fill="white"/>
</clipPath>
</defs>
</svg>
